<svg width="388" height="333" id="Layer_1" data-name="Layer 1" xmlns="http://www.w3.org/2000/svg" xmlns:xlink="http://www.w3.org/1999/xlink" viewBox="0 0 388 333"><defs><style>.cls-1{fill:none;}.cls-2{fill:#fff;}.cls-3{fill:url(#linear-gradient);}.cls-4{fill:#1d1d1d;}.cls-5{clip-path:url(#clip-path);}.cls-6{fill:url(#linear-gradient-2);}</style><linearGradient id="linear-gradient" x1="196.02" y1="286.89" x2="196.02" y2="237.11" gradientUnits="userSpaceOnUse"><stop offset="0" stop-color="#fff"/><stop offset="1" stop-color="#fdf8e0"/></linearGradient><clipPath id="clip-path"><path class="cls-1" d="M174.68,57.16c3.65-2.08,13.45-5.54,29.63-8.73l4.17-.85,9.22-1.47c21.2-3.21,34.35-3,39.07-2.06-4.4,2.51-17.74,7-40.45,10.65a214.6,214.6,0,0,1-32.67,3.09,48.32,48.32,0,0,1-9-.63m72.09-19a232.51,232.51,0,0,0-32.4,3.14,233.55,233.55,0,0,0-31.82,7.11c-13.15,4.15-14.61,7.15-14.22,9.76.26,1.79,1.4,3.49,6.51,4.33a58.89,58.89,0,0,0,9.85.55,231.13,231.13,0,0,0,32.4-3.14A233.72,233.72,0,0,0,248.9,52.8c13.15-4.15,14.61-7.15,14.23-9.76h0c-.37-2.54-2.51-4.88-15.23-4.88h-1.13"/></clipPath><linearGradient id="linear-gradient-2" x1="-1179.3" y1="5020.96" x2="-1179" y2="5020.96" gradientTransform="matrix(299.52, -49.88, -49.88, -299.52, 603850.32, 1445124.82)" gradientUnits="userSpaceOnUse"><stop offset="0" stop-color="#edcb3e"/><stop offset="0.49" stop-color="#fff1a5"/><stop offset="0.57" stop-color="#feef9e"/><stop offset="0.69" stop-color="#fbe88c"/><stop offset="0.83" stop-color="#f5dc6d"/><stop offset="0.99" stop-color="#eecd42"/><stop offset="1" stop-color="#edcb3e"/></linearGradient></defs><path class="cls-2" d="M335.19,264.19a33.83,33.83,0,0,1-9.3,23.48,31,31,0,0,1-22.45,9.72H84.56c-17.54,0-31.75-14.86-31.75-33.2a33.82,33.82,0,0,1,9.3-23.47A31,31,0,0,1,84.56,231h4.62a34.19,34.19,0,0,1-3-14,33.83,33.83,0,0,1,9.3-23.48A30.93,30.93,0,0,1,118,183.82h2.09a40.88,40.88,0,0,1-1.26-10c0-25.82,24.31-46.74,54.3-46.74s54.31,20.92,54.31,46.74a40.88,40.88,0,0,1-1.26,10h7.94c17.34,0,31.42,14.53,31.74,32.58,10.38,1.24,18.7,7.07,21.06,14.6h16.54C321,231,335.19,245.86,335.19,264.19Z"/><path class="cls-3" d="M321.82,277.19c0,2.68-3.16,5.11-8.28,6.86a64,64,0,0,1-20,2.84H98.5c-15.62,0-28.29-4.34-28.29-9.7,0-2.68,3.17-5.11,8.29-6.86a64,64,0,0,1,20-2.84h4.12c-1.69-1.24-2.63-2.63-2.63-4.09,0-2.68,3.16-5.1,8.29-6.85a63.91,63.91,0,0,1,20-2.85h1.87a4.72,4.72,0,0,1-1.13-2.93c0-7.55,21.66-13.66,48.39-13.66s48.38,6.11,48.38,13.66a4.7,4.7,0,0,1-1.12,2.93h7.08c15.45,0,28,4.25,28.28,9.52,9.25.37,16.67,2.07,18.77,4.27h14.73C309.16,267.49,321.82,271.83,321.82,277.19Z"/><path d="M201.1,180.66c-9.9,29.19,14.63,51,14.63,51l-28.4,17.05s-3.18-5.44.88-13.25c2.22-4.26,9.43-8.88,9.43-8.88s-14.2-17.55-8.23-40.68c.83-3.21,12.75-8.34,11.69-5.21"/><path d="M227.31,190.64c9.91,29.2-14.62,51-14.62,51l28.39,17.05s3.18-5.44-.88-13.25c-2.21-4.26-9.43-8.88-9.43-8.88S245,219,239,195.85c-.83-3.21-12.75-8.33-11.69-5.21"/><path d="M260.49,206c8,.82,15.18-5.33,16-13.73L282.7,125l3.62,4.6a4.93,4.93,0,0,0,7.16.73,5.47,5.47,0,0,0,.69-7.48L237.36,50.62a22.84,22.84,0,0,0-33.09-3.37l-69.05,59.42a5.48,5.48,0,0,0-.7,7.48,4.94,4.94,0,0,0,7.16.73l4.4-3.79-6.25,67.27c-.78,8.4,5.1,15.87,13.13,16.69"/><path class="cls-2" d="M244.43,122a65.84,65.84,0,0,1-8.71-6.71c-.85-.84-1.69-2.13-1.1-3.19.7-1.25,2.52-.76,3.75-.1a164.08,164.08,0,0,1,30.36,21.1c.61.54,1.28,1.39.85,2.1s-1.42.46-2.13.13a48.63,48.63,0,0,1-8.28-4.88l5,5.4c.88,1,1.73,2.61.71,3.39s-6-3.05-8.83-4.84a30.05,30.05,0,0,1,5.1,6.38,1.93,1.93,0,0,1,.35,1,1.22,1.22,0,0,1-1.28,1,3.46,3.46,0,0,1-1.62-.68q-13.62-8.72-26.7-18.32a2.25,2.25,0,0,1-.84-.89,1.59,1.59,0,0,1,1.26-2,4.08,4.08,0,0,1,2.48.57,73.19,73.19,0,0,1,8.42,4.71,27.5,27.5,0,0,1-8.57-6c-.35-.37-.74-.84-.62-1.35.25-1,1.78-1,2.6-.69,2.7,1.18,7.79,3.8,7.79,3.8"/><path class="cls-2" d="M165.16,113a64.53,64.53,0,0,1-10.94,1.73c-1.2,0-2.71-.26-3-1.48-.36-1.43,1.29-2.45,2.65-2.91a161.55,161.55,0,0,1,36.58-7.68c.81-.08,1.88,0,2.06.87s-.71,1.41-1.45,1.71a48.26,48.26,0,0,1-9.37,2.72l7.36.13c1.29,0,3.06.58,2.86,1.92s-6.44,2.31-9.74,3.17a28,28,0,0,1,8.1.77,1.68,1.68,0,0,1,1,.47,1.31,1.31,0,0,1-.23,1.69,3.37,3.37,0,0,1-1.64.74q-15.89,4-32,6.94a2.23,2.23,0,0,1-1.23,0,1.66,1.66,0,0,1-.44-2.37,4.35,4.35,0,0,1,2.19-1.47,73.46,73.46,0,0,1,9.35-3,27.14,27.14,0,0,1-10.35,2.13c-.51,0-1.12,0-1.39-.5-.53-.94.57-2.1,1.41-2.47,2.77-1.19,8.27-3.14,8.27-3.14"/><path d="M257.28,84.78A193.78,193.78,0,0,1,267,67.4a63.9,63.9,0,0,0,8.6,7.94q-5.93,8.52-12.51,16.48"/><path d="M266.81,58.48q8.65,6.06,17.11,12.41l-5.86,7.83a.51.51,0,0,1-.88.11L261.09,66.56"/><path class="cls-2" d="M214.35,74.81c7.72,1.86,23.13,5.13,23.13,5.13l-5.42,20.16c-6.45-1.72-22.49-5.76-22.49-5.76"/><path class="cls-4" d="M238.85,90c0,.31-.44.46-1.12.47-.17,0-.35,0-.56,0a3.39,3.39,0,0,1-.66-.14l-.69-.22A7.58,7.58,0,0,0,235,90c-.28,0-.57-.07-.88-.14s-.6-.11-.92-.16a5.39,5.39,0,0,1-1-.22c-.34-.12-.67-.27-1-.37a3,3,0,0,0-1-.08,3.82,3.82,0,0,1-.58,0,4.74,4.74,0,0,1-.57-.16,6.77,6.77,0,0,0-1.08-.35c-.37-.07-.76-.1-1.15-.15-1.41-.23-2.79-.48-4.13-.72l-1-.18a6.73,6.73,0,0,1-1-.27,7.31,7.31,0,0,0-.87-.21l-.88-.12a6,6,0,0,1-.84-.18l-.75-.27-.33-.11a3,3,0,0,0-.32-.09l-.62-.15-1-.26-.61-.21c-.3-.1-.58-.21-.84-.31s-.48-.17-.72-.25a3.39,3.39,0,0,1-.71-.28,3.09,3.09,0,0,1-.55-.43,4.88,4.88,0,0,1-.66-.79c-.13-.21-.2-.37-.16-.49s.16-.16.37-.14a4.27,4.27,0,0,1,.82.27,4.29,4.29,0,0,0,.54.19c.19,0,.41.07.66.1a5,5,0,0,1,.82.17l.83.28.6.21c.26.1.59.18,1,.3l.6.18.16.05.17,0,.35.14c.24.1.47.21.71.3l.36.12.4.09.85.18a5.09,5.09,0,0,1,.92.27,8.59,8.59,0,0,0,.89.31l1,.24,4,1c.37.08.76.13,1.15.21a6.68,6.68,0,0,1,1.12.37,3.51,3.51,0,0,0,.53.15,2.91,2.91,0,0,0,.52,0,4,4,0,0,1,1.15,0c.37.08.71.22,1,.31a5.29,5.29,0,0,0,1,.15c.32,0,.65,0,1,.09s.59.07.88.09a6,6,0,0,1,.84.1,5.1,5.1,0,0,1,.72.23,4.58,4.58,0,0,0,.59.17l.53.12c.64.16,1,.35,1,.66"/><path class="cls-4" d="M221.32,99.59c-.28-.08-.38-.43-.36-1,0-.14,0-.29,0-.46a2.89,2.89,0,0,1,.16-.53c.07-.18.16-.37.22-.56a5.09,5.09,0,0,0,.14-.64c0-.23.07-.48.14-.74a7.43,7.43,0,0,0,.16-.77,3.79,3.79,0,0,1,.22-.83c.11-.28.26-.54.35-.81a2.31,2.31,0,0,0,.09-.89,2.69,2.69,0,0,1,0-.49,3.24,3.24,0,0,1,.16-.47,4.55,4.55,0,0,0,.34-.88c.07-.31.1-.64.16-1,.22-1.17.48-2.32.71-3.43l.18-.82a5.23,5.23,0,0,1,.26-.79,4.15,4.15,0,0,0,.21-.72c0-.25.08-.5.12-.73a5.68,5.68,0,0,1,.18-.71c.08-.22.18-.42.26-.6l.11-.27.09-.27q.08-.27.15-.51c.1-.32.17-.6.25-.82s.16-.39.2-.5.21-.48.31-.69a5.17,5.17,0,0,0,.23-.59,2.75,2.75,0,0,1,.28-.57,2.5,2.5,0,0,1,.41-.44,4.09,4.09,0,0,1,.76-.49.66.66,0,0,1,.46-.11c.11,0,.16.15.13.33a2.6,2.6,0,0,1-.26.68,3.65,3.65,0,0,0-.18.44,3.33,3.33,0,0,0-.11.55,3.3,3.3,0,0,1-.16.68q-.13.33-.27.69l-.21.49c-.09.21-.18.48-.29.79-.05.15-.11.32-.18.49s0,.09,0,.13l-.06.15c0,.09-.09.19-.13.29a6.1,6.1,0,0,0-.29.57,1.57,1.57,0,0,0-.12.3l-.09.32c-.06.24-.12.47-.17.72a4.51,4.51,0,0,1-.27.75c-.11.25-.23.49-.31.73s-.15.53-.23.8c-.32,1.08-.65,2.21-1,3.35-.08.31-.12.63-.2,1a6.41,6.41,0,0,1-.36.93,2.19,2.19,0,0,0-.15.43,2.08,2.08,0,0,0,0,.44,3.22,3.22,0,0,1,0,1c-.09.31-.21.58-.3.85a3.13,3.13,0,0,0-.15.81c0,.27,0,.55-.1.81a6.23,6.23,0,0,0-.09.74,5.38,5.38,0,0,1-.12.7,4.23,4.23,0,0,1-.24.59c-.08.18-.14.34-.19.48s-.09.31-.13.44c-.19.52-.41.78-.7.7"/><path class="cls-2" d="M241.73,140.74A25.59,25.59,0,0,1,256.47,149a27.88,27.88,0,0,1,7.1,19.57,2,2,0,1,1-3.93-.13,23.69,23.69,0,0,0-6-16.63,21.53,21.53,0,0,0-31.4-1,23.52,23.52,0,0,0-7,16.21,2,2,0,1,1-3.92-.13c.44-15.06,12.52-26.95,26.93-26.49a24,24,0,0,1,3.5.35"/><path class="cls-2" d="M180.45,130.19a26,26,0,0,1,3.43.84,26.25,26.25,0,0,1,15.45,13.3,28.28,28.28,0,0,1,1.93,20.83,1.94,1.94,0,0,1-2.45,1.36,2.06,2.06,0,0,1-1.3-2.56c3.57-12.26-3.06-25.26-14.78-29a21.19,21.19,0,0,0-16.92,1.72A22.84,22.84,0,0,0,155,150.41a2,2,0,0,1-2.45,1.36,2.06,2.06,0,0,1-1.3-2.56A26.89,26.89,0,0,1,164,133.05a25,25,0,0,1,16.49-2.86"/><g class="cls-5"><polygon class="cls-6" points="164.08 38.83 260.93 21.96 267.37 62.42 170.52 79.29 164.08 38.83"/></g><path d="M208.56,47.62l9.22-1.47c4.53-.68,8.68-1.21,12.47-1.62a22.75,22.75,0,0,0-25.91,2.76l-2,1.59,2-.41Z"/></svg>