<svg width="151" height="81" viewBox="0 0 151 81" fill="none" xmlns="http://www.w3.org/2000/svg">
  <g filter="url(#filter0_d)">
    <path d="M44.2219 55.9066L34.2717 40.8755H31.4137V55.9066H22.9456V14.042H39.6702C49.2498 14.042 53.431 20.8695 53.431 27.6969C53.431 33.6776 49.2498 39.4995 43.3221 40.5051L54.119 55.9066H44.2219ZM31.4137 21.5046V34.101H38.1354C42.8987 34.101 44.857 31.243 44.857 27.9086C44.857 24.5743 42.7399 21.5046 38.7705 21.5046H31.4137Z" fill="white"/>
    <path d="M84.6044 44.3159H63.2752C64.122 47.6503 66.8212 49.6085 70.579 49.6085C73.4899 49.6085 76.295 48.2854 78.0416 46.2742L82.6461 50.9317C79.9469 54.5306 75.0248 56.6477 70.0497 56.6477C61.3169 56.6477 54.9128 50.5083 54.9128 41.7755C54.9128 32.6192 61.8991 26.7974 69.9968 26.7974C78.1474 26.7974 84.7632 32.5663 84.7632 41.2462C84.8161 42.0401 84.7632 43.0457 84.6044 44.3159ZM76.7713 39.1291C76.5067 35.7948 73.8075 33.6778 70.2085 33.6778C66.9271 33.6778 64.122 35.3185 63.2752 39.1291H76.7713Z" fill="white"/>
    <path d="M106.516 19.4935C101.964 19.4935 100.482 21.981 100.429 25.3683V27.4854H106.622V33.6777H100.429V55.8538H92.4903V33.7306H87.1448V27.5383H92.4903V25.4742C92.4903 16.9531 96.8832 12.0839 104.928 12.0839H108.315V19.4935H106.516Z" fill="white"/>
    <path d="M132.397 27.5383H140.971L123.452 69.8262H114.931L121.653 53.2074L110.433 27.4854H119.165L125.834 43.8925L132.397 27.5383Z" fill="white"/>
    <path d="M44.7512 10.2313C44.4337 9.33157 43.481 8.5906 38.3472 9.43742C35.0658 9.96668 30.7787 11.0781 26.3859 12.4542C21.9401 13.8832 17.8648 15.4181 14.848 16.9C10.1376 19.1758 9.76708 20.3402 10.0846 21.2399C10.2963 21.8751 10.8256 22.4043 12.7839 22.4043C13.6836 22.4043 14.9009 22.2985 16.4887 22.0338C19.7701 21.5046 24.0571 20.3931 28.45 19.017C32.8958 17.588 36.9711 16.0532 39.9879 14.5713C44.6454 12.2954 45.0159 11.1311 44.7512 10.2313ZM27.8149 17.1646C19.5055 19.8109 14.2129 20.6048 12.3075 20.499C13.5778 19.5463 17.018 17.6939 22.9457 15.6298V14.042H27.8678C35.648 11.6603 40.5701 10.9193 42.4225 10.9723C40.8876 12.1366 36.1243 14.5713 27.8149 17.1646Z" fill="url(#paint0_linear)"/>
  </g>
  <defs>
    <filter id="filter0_d" x="0" y="0.0650635" width="150.971" height="80.7612" filterUnits="userSpaceOnUse" color-interpolation-filters="sRGB">
      <feFlood flood-opacity="0" result="BackgroundImageFix"/>
      <feColorMatrix in="SourceAlpha" type="matrix" values="0 0 0 0 0 0 0 0 0 0 0 0 0 0 0 0 0 0 127 0"/>
      <feOffset dy="1"/>
      <feGaussianBlur stdDeviation="5"/>
      <feColorMatrix type="matrix" values="0 0 0 0 0.0705882 0 0 0 0 0.137255 0 0 0 0 0.305882 0 0 0 0.22 0"/>
      <feBlend mode="normal" in2="BackgroundImageFix" result="effect1_dropShadow"/>
      <feBlend mode="normal" in="SourceGraphic" in2="effect1_dropShadow" result="shape"/>
    </filter>
    <linearGradient id="paint0_linear" x1="10.7175" y1="21.2948" x2="43.8106" y2="10.2811" gradientUnits="userSpaceOnUse">
      <stop stop-color="#EFCD3F"/>
      <stop offset="0.486" stop-color="#FFF2A6"/>
      <stop offset="0.5697" stop-color="#FEF09F"/>
      <stop offset="0.6891" stop-color="#FBE98D"/>
      <stop offset="0.8299" stop-color="#F6DE6E"/>
      <stop offset="0.986" stop-color="#F0CF43"/>
      <stop offset="1" stop-color="#EFCD3F"/>
    </linearGradient>
  </defs>
</svg>
