<svg xmlns="http://www.w3.org/2000/svg" width="730.47" height="634.63" viewBox="0 0 730.47 634.63"><defs><style>.a{fill:#fff;}</style></defs><path d="M227.39,452.88l-12,35.51c-4.54,13.56,2.7,28.61,16.26,33.15l25.5,8.53a15.56,15.56,0,1,0,3.29-9.84l-25.5-8.53c-8.14-2.72-12.43-11.88-9.71-20l11.71-34.6"/><path d="M418.89,480.33c.77,3.1,1.4,154.3,1.4,154.3h87.47s1.39-18-19.31-32.18c-11.31-7.76-36.22-9.69-36.22-9.69l-1.41-112.43Z"/><path d="M414.15,480.33c-.78,3.1-1.41,154.3-1.41,154.3H325.27s-1.38-18,19.32-32.18c11.31-7.76,36.22-9.69,36.22-9.69l1.4-112.43Z"/><path d="M593,525.77h0A118.78,118.78,0,0,0,695,481q3.54-4.49,6.65-9.3a118.2,118.2,0,0,0,18.51-55.29l10-132.58A118.44,118.44,0,0,0,620.77,156.71l-87.64-6.59-220.88-16.6A118.61,118.61,0,0,0,185.11,242.88L180,310.67l-4.87,64.79A118.59,118.59,0,0,0,284.5,502.59l207.92,14.84h0"/><circle class="a" cx="311.89" cy="382.77" r="71.57"/><circle class="a" cx="484.77" cy="405.87" r="71.57"/><circle cx="482.55" cy="379.69" r="35.45"/><circle cx="326.65" cy="362.65" r="35.45"/><path class="a" d="M310.41,251.11c-11.82-.16-22.82-.1-32.63-2-3.49-.66-7.67-2.39-7.83-5.94-.19-4.19,5.2-6,9.37-6.4a496.8,496.8,0,0,1,110.24,1.29c2.38.29,5.41,1.28,5.44,3.68s-2.88,3.46-5.21,3.83a148.85,148.85,0,0,1-28.68,1.76l21.21,4.88c3.72.86,8.49,3.5,7.12,7.06-1.09,3.34-20,2.41-30,2.78a87.29,87.29,0,0,1,23,7.09,5.15,5.15,0,0,1,2.49,1.92c.86,1.56-.14,3.61-1.67,4.52a10.42,10.42,0,0,1-5.17,1q-48.27,1.24-96.56-.56a6.58,6.58,0,0,1-3.54-.8c-2.16-1.46-1.76-5,.12-6.82s4.62-2.32,7.2-2.7a223.56,223.56,0,0,1,28.77-2.4,83.57,83.57,0,0,1-31.17-.48c-1.48-.31-3.22-.83-3.71-2.26-1-2.92,2.87-5.45,5.51-5.93,8.7-1.6,25.74-3.61,25.74-3.61"/><path class="a" d="M487.4,288.88c-10.46-4.9-20.28-9.28-28.27-14.87-2.84-2-5.87-5.21-4.59-8.43,1.52-3.81,7-3.24,10.92-1.93a485.26,485.26,0,0,1,97.65,45.47c2,1.22,4.31,3.31,3.37,5.47s-4,1.92-6.19,1.31a144.9,144.9,0,0,1-26.24-10L551,318.81c3,2.26,6.15,6.53,3.5,9.15-2.32,2.53-18.75-5.88-27.84-9.6a85.24,85.24,0,0,1,17.6,15.56,5.05,5.05,0,0,1,1.45,2.71c.13,1.73-1.58,3.16-3.31,3.36a10.25,10.25,0,0,1-5-1.16q-43.49-18.3-85.77-39.32a6.54,6.54,0,0,1-2.82-2.13c-1.34-2.17.44-5.18,2.85-6s5-.21,7.5.49a220.6,220.6,0,0,1,26.57,9.42,81.43,81.43,0,0,1-27.56-12.95c-1.2-.87-2.53-2-2.39-3.51.29-3,4.75-3.7,7.29-3.07,8.39,2.08,24.37,7.15,24.37,7.15"/><path d="M172.45,272.35l5.4-45.39c2.34-46.73,60.13-108.52,122.69-103.09l160.82,10.94L462.47,122a90.43,90.43,0,0,0-82.18-97.82L105.5.34A90.44,90.44,0,0,0,7.69,82.53L.34,167.12a90.44,90.44,0,0,0,82.19,97.82l89.92,7.41"/><path class="a" d="M361,77.77c-.1.82-3.87,1-10.44.73-1.65-.07-3.46-.16-5.46-.28s-4.36-.37-6.66-.64-4.68-.58-7.1-.82-5-.42-7.84-.59-5.81-.34-9-.61c-3-.26-6.08-.46-9.38-.66s-6.77-.42-10.34-.83-7-.87-10.42-1.19-6.73-.37-10.52-.41c-1.87,0-3.83-.06-5.85-.18s-4-.31-5.91-.51c-3.87-.41-7.58-.9-11.28-1.11s-7.65-.35-11.63-.52L197.2,68l-10-.48c-3.5-.16-6.81-.46-9.95-.69s-6-.43-9-.53L159.39,66c-2.9-.09-5.84-.21-8.7-.42s-5.41-.46-7.82-.65l-3.47-.27-3.33-.19-6.38-.34c-4-.23-7.44-.36-10.26-.56L113,63.11l-8.82-.69c-2.48-.23-5-.36-7.6-.52s-5.08-.35-7.47-.63-4.45-.64-6.25-1c-3.59-.73-6.19-1.41-8-2s-2.7-1-2.58-1.27,1.32-.47,3.44-.45,5.11.24,8.64.53c1.76.14,3.69.29,5.64.37s4.19.12,6.69.16,5.32.08,8.45.29l8.77.6,6.32.48c2.75.22,6.14.38,10,.66l6.24.41,1.67.12,1.85.13,3.72.33,7.51.74c1.27.12,2.48.21,3.79.29l4.08.22,8.81.42c3,.15,6.43.4,9.58.7s6.3.62,9.37.83l9.93.64c13.46.89,27.61,1.87,41.73,2.92l11.72.68c4.06.24,8.06.75,11.76,1.15,1.86.2,3.68.37,5.44.49s3.45.13,5.25.15c3.58,0,7.51,0,11.45.27s7.37.72,10.71,1,6.5.47,9.8.62,6.53.28,9.74.5c3,.19,5.88.31,8.77.45s5.67.3,8.52.56,5.29.59,7.56.87,4.28.53,6.09.72c2,.18,3.82.36,5.46.54C357.39,76.22,361.1,77,361,77.77Z"/><path class="a" d="M191.26,128.83c-.08.82-1.84,1.16-4.88,1.19-.76,0-1.6,0-2.52-.05a26.68,26.68,0,0,1-3.07-.37c-1-.17-2.14-.38-3.25-.53s-2.33-.21-3.62-.28-2.68-.13-4.14-.28-2.79-.23-4.31-.33a43.36,43.36,0,0,1-4.76-.48c-1.62-.28-3.2-.64-4.77-.87a24.3,24.3,0,0,0-4.86-.11,24.62,24.62,0,0,1-2.71,0c-.93-.07-1.82-.21-2.71-.36a51.16,51.16,0,0,0-5.16-.83c-1.74-.15-3.53-.18-5.36-.27-6.6-.46-13.08-1-19.33-1.48l-4.61-.37c-1.61-.13-3.13-.39-4.56-.6a40.83,40.83,0,0,0-4.13-.47l-4.07-.24c-1.33-.09-2.68-.19-4-.4s-2.47-.43-3.57-.63c-.55-.1-1.08-.19-1.59-.26s-1-.13-1.52-.2l-2.92-.34c-1.83-.23-3.42-.39-4.7-.59l-3-.48c-1.39-.24-2.76-.5-4-.75s-2.3-.39-3.46-.57a27.63,27.63,0,0,1-3.4-.69,18.68,18.68,0,0,1-2.8-1.08,23.11,23.11,0,0,1-3.51-2c-.77-.56-1.16-1-1.08-1.29s.65-.46,1.63-.42a28.49,28.49,0,0,1,3.94.64c.8.16,1.67.33,2.56.43s1.93.16,3.08.22A32.77,32.77,0,0,1,74,114l4,.64,2.88.51c1.25.23,2.8.41,4.57.68l2.85.42.77.11.84.14c.56.1,1.13.21,1.69.33,1.13.24,2.27.51,3.41.72.58.11,1.14.2,1.74.28l1.87.2,4,.38c1.39.13,2.94.35,4.38.63s2.87.56,4.27.74l4.55.54L135,122.55c1.75.18,3.56.26,5.39.43s3.69.56,5.38.86c.85.15,1.68.28,2.49.35a17.87,17.87,0,0,0,2.43,0,32.05,32.05,0,0,1,5.29,0c1.75.18,3.38.5,4.91.7a38,38,0,0,0,4.51.3c1.5,0,3,0,4.5.15s2.71.11,4,.14,2.62.07,3.93.22,2.42.38,3.46.57,2,.36,2.79.46,1.76.2,2.51.31C189.66,127.44,191.35,128,191.26,128.83Z"/><path class="a" d="M167,190.35c0,.82-1.48,1.25-4,1.45-.63,0-1.31.08-2.06.09a17.13,17.13,0,0,1-2.52-.19c-.86-.11-1.76-.26-2.67-.34s-1.9-.07-3-.06-2.19,0-3.38,0-2.29-.06-3.54-.06A29.17,29.17,0,0,1,142,191c-1.33-.16-2.63-.43-3.92-.54a15.52,15.52,0,0,0-4,.22,19.42,19.42,0,0,1-2.21.17,20.14,20.14,0,0,1-2.22-.18,35.56,35.56,0,0,0-4.25-.46c-1.42,0-2.88.08-4.38.12l-15.82,0h-3.78c-1.31,0-2.56-.13-3.74-.22a30.05,30.05,0,0,0-3.39-.11l-3.33.11a29.71,29.71,0,0,1-3.27,0c-1.06-.08-2-.22-2.95-.31l-1.31-.12c-.41,0-.81,0-1.25-.06l-2.41-.07c-1.5-.06-2.8-.06-3.86-.15l-2.44-.2c-1.15-.1-2.29-.22-3.33-.35s-1.9-.17-2.86-.23a18.42,18.42,0,0,1-2.82-.36,13.17,13.17,0,0,1-2.37-.78,18,18,0,0,1-3-1.67c-.68-.48-1-.87-1-1.18s.49-.52,1.29-.57a18.39,18.39,0,0,1,3.26.23,20.2,20.2,0,0,0,2.13.17c.74,0,1.58,0,2.52-.09a23.92,23.92,0,0,1,3.19,0l3.31.26,2.39.23c1,.11,2.31.15,3.78.26l2.35.15.64,0,.69.06q.7.07,1.41.18c.94.13,1.88.3,2.83.41.48.06.94.1,1.43.12s1,0,1.54,0l3.32,0a29.94,29.94,0,0,1,3.62.26c1.2.14,2.37.32,3.53.38l3.75.15,15.73.74c1.44,0,2.92,0,4.42,0a36.17,36.17,0,0,1,4.44.47,16.4,16.4,0,0,0,2.05.18,13.65,13.65,0,0,0,2-.16,20.9,20.9,0,0,1,4.32-.41c1.44.06,2.78.27,4,.38a26.87,26.87,0,0,0,3.7,0c1.23-.07,2.47-.14,3.68-.13s2.22-.06,3.31-.11a28.84,28.84,0,0,1,3.22,0c1.05.07,2,.23,2.85.36s1.61.25,2.3.3,1.44.1,2.06.17C165.64,189.05,167,189.52,167,190.35Z"/><path d="M514.38,508.19A276.47,276.47,0,0,0,542,583.31c3.25,6,6.86,12,12.22,16.21a2.48,2.48,0,0,0,1.46.66c1,0,1.56-1.21,1.78-2.21,1.12-5.09.21-10.39-.5-15.56a189.06,189.06,0,0,1,2.91-67"/></svg>